:version 1.10
:name ASF
:units
  mass 1
  length 1
  angle deg
:documentation
  ASF file generated by Kaydara
:root
  axis xyz
  order  tx ty tz rx ry rz
  position 0 0 0
  orientation 0 0 0
:bonedata
  begin
    id 1
    name LeftUpLegDummy
    direction 1 -2.30186e-007 -8.31532e-007
    length 2.93387
    axis 0 0 0 xyz
  end
  begin
    id 2
    name LeftUpLeg
    direction -1.82929e-007 -1 -1.48925e-009
    length 17.3336
    axis -3.48766 0.00143442 -0.000521554 xyz
    dof rx ry rz
  end
  begin
    id 3
    name LeftLeg
    direction -1.82929e-007 -1 -5.23717e-011
    length 14.9995
    axis 3.68178 -0.00654042 -0.000282425 xyz
    dof rx ry rz
  end
  begin
    id 4
    name LeftFoot
    direction 8.31532e-007 -4.54534e-011 1
    length 6.74421
    axis 1.87234e-006 4.66016e-005 -5.96866e-006 xyz
    dof rx ry rz
  end
  begin
    id 5
    name LeftToes
    direction 0.00818058 -0.00485161 0.999955
    length 3.85048
    axis 1.06247e-005 4.65869e-005 -5.96999e-006 xyz
    dof rx ry rz
  end
  begin
    id 6
    name SpineDummy
    direction -5.8607e-008 0.943407 -0.331637
    length 5.93572
    axis 0 0 0 xyz
  end
  begin
    id 7
    name Spine
    direction -1.04988e-007 0.999988 0.00495137
    length 10.1015
    axis -0.001389 0.000121417 6.61666e-006 xyz
    dof rx ry rz
  end
  begin
    id 8
    name Spine1
    direction 0 0 0
    length 0
    axis -0.001389 0.00012144 6.56766e-006 xyz
    dof rx ry rz
  end
  begin
    id 9
    name RightShoulderDummy
    direction -0.98348 0.17941 -0.0240696
    length 3.59882
    axis -0.001389 0.00012144 6.56766e-006 xyz
  end
  begin
    id 10
    name RightShoulder
    direction -0.978693 0.204882 0.0135597
    length 2.70001
    axis 0.215806 0.000203631 -0.00679732 xyz
    dof rx ry rz
  end
  begin
    id 11
    name RightArm
    direction -1 3.85509e-006 8.31394e-007
    length 10.2459
    axis -23.2009 -0.134239 -0.964098 xyz
    dof rx ry rz
  end
  begin
    id 12
    name RightForeArm
    direction -1 3.85569e-006 8.3129e-007
    length 8.16799
    axis -9.92322 0.0658061 0.17887 xyz
    dof rx ry rz
  end
  begin
    id 13
    name RightHand
    direction -0.992843 -0.0414604 0.112003
    length 5.28593
    axis -0.00960638 0.00330669 -0.185225 xyz
    dof rx ry rz
  end
  begin
    id 14
    name LeftShoulder1Dummy
    direction 0.983523 0.179172 -0.0240748
    length 3.59866
    axis -0.001389 0.00012144 6.56766e-006 xyz
  end
  begin
    id 15
    name LeftShoulder1
    direction 0.978627 0.205195 0.0135605
    length 2.70019
    axis -0.001389 0.00012144 6.57583e-006 xyz
    dof rx ry rz
  end
  begin
    id 16
    name LeftArm
    direction 1 3.51895e-006 -8.60188e-007
    length 10.2459
    axis -23.1894 0.134785 0.967513 xyz
    dof rx ry rz
  end
  begin
    id 17
    name LeftForeArm
    direction 1 3.51921e-006 -7.32029e-007
    length 8.16799
    axis -9.91835 -0.0656957 -0.177789 xyz
    dof rx ry rz
  end
  begin
    id 18
    name LeftHand
    direction 0.992938 -0.0411636 0.11126
    length 5.32135
    axis -0.00960237 -0.00340661 0.185177 xyz
    dof rx ry rz
  end
  begin
    id 19
    name HEadDummy
    direction 1.01974e-006 0.999861 -0.016675
    length 2.99946
    axis -0.001389 0.00012144 6.56766e-006 xyz
  end
  begin
    id 20
    name HEad
    direction -0.0222689 0.980941 0.193023
    length 5.12695
    axis -0.001389 0.00012144 6.56766e-006 xyz
    dof rx ry rz
  end
  begin
    id 21
    name RightUpLegDummy
    direction -1 2.30186e-007 8.31532e-007
    length 2.93387
    axis 0 0 0 xyz
  end
  begin
    id 22
    name RightUpLeg
    direction -1.82966e-007 -1 1.56832e-007
    length 17.3336
    axis -3.4909 -0.000906625 0.00028951 xyz
    dof rx ry rz
  end
  begin
    id 23
    name RightLeg
    direction -1.82786e-007 -1 -1.80317e-007
    length 14.9995
    axis 3.68513 0.0193739 -0.131021 xyz
    dof rx ry rz
  end
  begin
    id 24
    name RightFoot
    direction 8.31721e-007 -4.63324e-011 1
    length 6.74421
    axis 4.81691e-005 -0.120479 -0.188785 xyz
    dof rx ry rz
  end
  begin
    id 25
    name RightToes
    direction 0.00124746 -0.014064 0.9999
    length 3.85082
    axis 0.000481921 0.542163 -0.142575 xyz
    dof rx ry rz
  end
:hierarchy
  begin
    root LeftUpLegDummy SpineDummy RightUpLegDummy
    LeftUpLegDummy LeftUpLeg
    LeftUpLeg LeftLeg
    LeftLeg LeftFoot
    LeftFoot LeftToes
    SpineDummy Spine
    Spine Spine1
    Spine1 RightShoulderDummy LeftShoulder1Dummy HEadDummy
    RightShoulderDummy RightShoulder
    RightShoulder RightArm
    RightArm RightForeArm
    RightForeArm RightHand
    LeftShoulder1Dummy LeftShoulder1
    LeftShoulder1 LeftArm
    LeftArm LeftForeArm
    LeftForeArm LeftHand
    HEadDummy HEad
    RightUpLegDummy RightUpLeg
    RightUpLeg RightLeg
    RightLeg RightFoot
    RightFoot RightToes
  end

:SAMPLES-PER-SECOND 30
:FULLY-SPECIFIED
:DEGREES
45
root  -21.3753 33.6412 -32.0854 5.19804 35.8481 -2.31084
LeftUpLeg  -30.6724 8.96896 8.48188
LeftLeg  9.5449 12.0771 1.22975
LeftFoot  9.17463 -0.156783 1.95384
LeftToes  -15.2327 1.61378e-006 8.80029e-008
Spine  3.75668 2.38603 0.7677
Spine1  7.48362 4.87829 1.50601
RightShoulder  0.076834 7.61436 7.03039
RightArm  -34.159 -14.7466 70.0618
RightForeArm  31.6467 13.8061 2.47804
RightHand  0.301368 -5.71872 -5.71548
LeftShoulder1  -0.00455064 1.36798 -8.78348
LeftArm  -17.9205 18.9244 -71.5182
LeftForeArm  29.9843 -22.4822 -4.17578
LeftHand  0.0845519 2.80532 3.07448
HEad  4.61828 -10.8898 -5.73136
RightUpLeg  -6.3216 -13.6268 4.49209
RightLeg  10.0403 1.14602 0.129026
RightFoot  -5.03008 -0.0206313 -0.0921664
RightToes  -25.5864 -0.114739 -0.22015
46
root  -21.0069 33.5533 -31.825 4.92435 35.5462 -3.93846
LeftUpLeg  -30.2508 9.35115 10.307
LeftLeg  5.37265 11.5442 0.33787
LeftFoot  9.9439 -0.174579 2.00655
LeftToes  -15.5702 1.61378e-006 8.80029e-008
Spine  3.65487 2.43593 0.996707
Spine1  7.29594 4.96398 1.94961
RightShoulder  0.0755368 7.65044 6.9848
RightArm  -33.7756 -14.8292 69.9557
RightForeArm  31.279 14.1907 2.55017
RightHand  0.298423 -5.73441 -5.55585
LeftShoulder1  -0.00496644 1.3825 -8.61024
LeftArm  -19.0353 20.495 -71.6845
LeftForeArm  30.7574 -21.8654 -4.04826
LeftHand  0.0938151 3.0269 3.17243
HEad  3.73105 -11.1786 -5.84113
RightUpLeg  -6.05209 -13.472 5.50365
RightLeg  9.66102 1.36011 0.14379
RightFoot  -5.34819 -0.0232269 -0.119767
RightToes  -26.445 -0.120223 -0.226514
47
root  -20.556 33.4299 -31.4848 4.39026 35.056 -5.81996
LeftUpLeg  -29.6581 11.4212 11.3857
LeftLeg  2.55842 10.3584 -0.202303
LeftFoot  9.87552 -0.154241 1.77884
LeftToes  -15.9935 1.61378e-006 8.80029e-008
Spine  3.51975 2.50147 1.28272
Spine1  7.04294 5.07041 2.52185
RightShoulder  0.0731591 7.59423 6.81581
RightArm  -33.3711 -14.9612 69.9283
RightForeArm  30.8478 14.514 2.61108
RightHand  0.296502 -5.80644 -5.48341
LeftShoulder1  -0.00517056 1.41233 -8.55552
LeftArm  -20.7077 22.0867 -71.8222
LeftForeArm  31.5035 -20.9621 -3.86376
LeftHand  0.102156 3.2339 3.24076
HEad  2.94498 -11.1984 -5.81047
RightUpLeg  -5.59626 -13.855 6.55626
RightLeg  9.64195 2.31986 0.243494
RightFoot  -5.95078 -0.0317832 -0.233958
RightToes  -27.5662 -0.127526 -0.2347
48
root  -19.9993 33.2932 -31.079 3.9217 34.5236 -7.3315
LeftUpLeg  -29.1607 14.4026 11.3464
LeftLeg  1.88614 9.6787 -0.302201
LeftFoot  9.61802 -0.136006 1.61649
LeftToes  -17.7581 1.61378e-006 8.80029e-008
Spine  3.38836 2.54116 1.45169
Spine1  6.79018 5.13251 2.86386
RightShoulder  0.070229 7.5658 6.62423
RightArm  -33.0917 -15.2341 70.042
RightForeArm  30.6289 14.8242 2.66955
RightHand  0.293282 -5.86566 -5.34383
LeftShoulder1  -0.00513858 1.51945 -8.59522
LeftArm  -22.494 23.454 -71.7302
LeftForeArm  32.049 -19.6279 -3.59575
LeftHand  0.118005 3.51628 3.4662
HEad  2.12767 -11.2591 -5.45713
RightUpLeg  -5.07114 -14.7459 7.09479
RightLeg  10.2816 3.73546 0.4333
RightFoot  -6.79801 -0.0482627 -0.435075
RightToes  -28.7971 -0.135726 -0.243519
49
root  -19.3469 33.1627 -30.6429 3.5478 34.2046 -8.43109
LeftUpLeg  -28.0468 17.308 10.5421
LeftLeg  1.84873 9.42747 -0.300562
LeftFoot  10.0045 -0.143455 1.63883
LeftToes  -19.8426 1.61378e-006 8.80029e-008
Spine  3.19701 2.53344 1.51117
Spine1  6.40997 5.11289 2.9869
RightShoulder  0.066829 7.51853 6.47404
RightArm  -32.8277 -15.7863 70.2142
RightForeArm  30.3336 15.0273 2.70804
RightHand  0.292194 -5.8833 -5.30563
LeftShoulder1  -0.00484609 1.65145 -8.7429
LeftArm  -24.2963 24.5599 -71.3368
LeftForeArm  32.6338 -17.9244 -3.26024
LeftHand  0.127122 3.66109 3.59919
HEad  1.80046 -11.3905 -5.18059
RightUpLeg  -4.44154 -15.0357 7.12847
RightLeg  11.2978 4.31305 0.577527
RightFoot  -7.72907 -0.0642064 -0.572966
RightToes  -30.6285 -0.148273 -0.256311
50
root  -18.6222 33.0936 -30.181 3.91333 34.2025 -8.02707
LeftUpLeg  -27.281 18.1539 9.43687
LeftLeg  2.34155 8.92529 -0.208236
LeftFoot  11.9953 -0.195553 1.86113
LeftToes  -20.0615 1.61378e-006 8.80029e-008
Spine  2.91741 2.42879 1.20202
Spine1  5.83902 4.91291 2.30582
RightShoulder  0.0624654 7.44881 6.35359
RightArm  -32.8451 -16.5204 70.7813
RightForeArm  30.4045 14.9754 2.6982
RightHand  0.281411 -5.70955 -5.26269
LeftShoulder1  -0.00426866 1.61746 -8.92488
LeftArm  -26.3975 25.2116 -70.4357
LeftForeArm  33.24 -14.9111 -2.68293
LeftHand  0.131194 3.62851 3.76288
HEad  1.92865 -11.4816 -5.17053
RightUpLeg  -3.66124 -14.0092 5.95377
RightLeg  12.3175 3.23042 0.491482
RightFoot  -8.62185 -0.0638721 -0.469785
RightToes  -31.7916 -0.156451 -0.264223
51
root  -17.8677 33.0736 -29.7469 4.16709 34.351 -7.53087
LeftUpLeg  -26.3009 16.8686 9.30576
LeftLeg  2.45598 8.09213 -0.172857
LeftFoot  18.529 -0.422123 2.58737
LeftToes  -23.7696 1.61378e-006 8.80029e-008
Spine  2.72585 2.34191 0.83765
Spine1  5.45092 4.71521 1.52201
RightShoulder  0.0479049 7.34782 6.30694
RightArm  -33.0266 -17.0653 71.4068
RightForeArm  30.7539 14.9751 2.69793
RightHand  0.283292 -5.95579 -5.06608
LeftShoulder1  -0.00338187 1.66907 -9.01104
LeftArm  -27.7959 25.3064 -69.4615
LeftForeArm  33.4519 -12.9864 -2.32333
LeftHand  0.142869 3.7354 4.00177
HEad  1.70618 -11.7605 -4.84847
RightUpLeg  -2.67643 -11.5534 4.82929
RightLeg  13.0606 0.620528 0.103452
RightFoot  -8.87199 -0.0347054 -0.0698179
RightToes  -32.9826 -0.16499 -0.272152
52
root  -17.0787 33.1438 -29.3741 4.7564 34.9944 -5.78047
LeftUpLeg  -24.1029 13.4329 8.62513
LeftLeg  1.15747 9.25437 -0.406344
LeftFoot  23.5492 -0.780295 3.74207
LeftToes  -24.8237 1.61378e-006 8.80029e-008
Spine  2.73453 2.19909 -0.00172372
Spine1  5.4546 4.47358 0.0204329
RightShoulder  0.0249136 7.20149 6.06089
RightArm  -32.6183 -17.9937 72.7706
RightForeArm  29.3268 16.7145 3.02983
RightHand  0.29172 -6.67804 -4.62239
LeftShoulder1  -0.00216129 1.54397 -8.76418
LeftArm  -28.9277 24.4079 -68.3493
LeftForeArm  33.6445 -11.5226 -2.05379
LeftHand  0.147862 3.84449 4.02621
HEad  1.20683 -12.6351 -4.34569
RightUpLeg  -1.5533 -10.0457 2.53528
RightLeg  14.2402 -1.38237 -0.256771
RightFoot  -8.75784 -0.0105346 0.239997
RightToes  -35.2144 -0.181427 -0.286525
53
root  -16.1642 33.2608 -29.0052 5.38053 35.0621 -3.44337
LeftUpLeg  -22.5326 10.9193 6.98822
LeftLeg  2.83037 10.9566 -0.162157
LeftFoot  22.0895 -0.81883 4.19321
LeftToes  -23.8486 1.61378e-006 8.80029e-008
Spine  2.94898 2.44222 -0.908762
Spine1  5.85266 5.03578 -1.76155
RightShoulder  0.0178265 6.88254 5.94163
RightArm  -28.2315 -20.4194 73.8086
RightForeArm  24.7982 23.9684 4.49116
RightHand  0.336256 -7.41928 -4.80848
LeftShoulder1  -0.000582499 1.29531 -8.82898
LeftArm  -28.8999 22.6685 -67.0434
LeftForeArm  33.3578 -10.8002 -1.92218
LeftHand  0.155715 3.96398 4.12019
HEad  0.889772 -13.898 -3.83567
RightUpLeg  -0.735872 -9.11839 -0.587491
RightLeg  16.9606 -2.18634 -0.515653
RightFoot  -8.13353 -0.00189337 0.350949
RightToes  -39.6559 -0.21574 -0.31317
